<?xml version="1.0" standalone="no"?><!DOCTYPE svg PUBLIC "-//W3C//DTD SVG 1.1//EN" "http://www.w3.org/Graphics/SVG/1.1/DTD/svg11.dtd"><svg t="1522723664749" class="icon" style="" viewBox="0 0 1024 1024" version="1.1" xmlns="http://www.w3.org/2000/svg" p-id="1714" xmlns:xlink="http://www.w3.org/1999/xlink" width="200" height="200"><defs><style type="text/css"></style></defs><path d="M153.6 896c-6.4 0-6.4 0-12.8-6.4-19.2-19.2-25.6-38.4-25.6-64 0-6.4 6.4-12.8 12.8-12.8s12.8 6.4 12.8 12.8c0 12.8 6.4 32 19.2 38.4 6.4 6.4 6.4 12.8 0 19.2 0 6.4 0 12.8-6.4 12.8zM736 774.4c-6.4 0-6.4 0-12.8-6.4-19.2-19.2-25.6-38.4-25.6-64 0-6.4 6.4-12.8 12.8-12.8s12.8 6.4 12.8 12.8c0 12.8 6.4 32 19.2 38.4 6.4 6.4 6.4 12.8 0 19.2 0 12.8 0 12.8-6.4 12.8zM204.8 915.2h-6.4c-6.4 0-12.8-12.8-6.4-19.2 0-6.4 12.8-12.8 19.2-12.8h6.4c6.4 0 12.8 6.4 12.8 12.8-12.8 12.8-12.8 19.2-25.6 19.2z" fill="#f17c67" p-id="1715"></path><path d="M800 883.2c-96 0-172.8-76.8-172.8-172.8 0-96 76.8-172.8 172.8-172.8 83.2 0 172.8 19.2 179.2 19.2 12.8 0 19.2 12.8 19.2 25.6 0 6.4 12.8 160-64 243.2-32 38.4-83.2 57.6-134.4 57.6z m0-288c-64 0-115.2 51.2-115.2 115.2s51.2 115.2 115.2 115.2c38.4 0 70.4-12.8 96-38.4 44.8-51.2 51.2-140.8 51.2-179.2-38.4-6.4-96-12.8-147.2-12.8z" fill="#f17c67" p-id="1716"></path><path d="M966.4 614.4c-19.2 0-32-12.8-32-25.6v-524.8c0-19.2 12.8-32 32-32s32 12.8 32 32v524.8c0 12.8-12.8 25.6-32 25.6 6.4 0 6.4 0 0 0zM198.4 1004.8c-96 0-172.8-76.8-172.8-172.8 0-96 76.8-172.8 172.8-172.8 83.2 0 172.8 19.2 179.2 19.2 12.8 0 19.2 12.8 25.6 25.6 0 6.4 12.8 160-64 243.2-38.4 38.4-83.2 57.6-140.8 57.6z m0-294.4c-64 0-115.2 51.2-115.2 115.2s51.2 115.2 115.2 115.2c38.4 0 70.4-12.8 96-38.4 44.8-51.2 51.2-140.8 51.2-179.2-32 0-96-12.8-147.2-12.8z" fill="#f17c67" p-id="1717"></path><path d="M371.2 742.4c-19.2 0-32-12.8-32-25.6v-537.6c0-19.2 12.8-32 32-32s32 12.8 32 32v537.6c0 12.8-12.8 25.6-32 25.6z" fill="#f17c67" p-id="1718"></path><path d="M371.2 192c-12.8 0-25.6-12.8-25.6-25.6s6.4-32 25.6-32l595.2-115.2c12.8 0 32 6.4 32 25.6 0 12.8-6.4 32-25.6 32l-601.6 115.2zM384 307.2c-12.8 0-25.6-12.8-25.6-25.6s6.4-32 25.6-32l582.4-108.8c12.8 0 32 6.4 32 25.6 0 12.8-6.4 32-25.6 32l-588.8 108.8z" fill="#f17c67" p-id="1719"></path></svg>